<svg width="25" height="36" viewBox="0 0 25 36" version="1.1" xmlns="http://www.w3.org/2000/svg" xmlns:xlink="http://www.w3.org/1999/xlink">
<title>marker</title>
<desc>Created using Figma</desc>
<g id="Canvas" transform="translate(-2280 -473)">
<g id="marker">
<use xlink:href="#path0_fill" transform="matrix(-1 0 0 1 2305 473)" fill="#14D5B4"/>
</g>
</g>
<defs>
<path id="path0_fill" d="M 12.5 0C 5.60746 0 -1.31664e-07 5.84874 -1.31664e-07 13.0378C -1.31664e-07 21.9596 11.1863 35.0574 11.6625 35.6106C 12.1099 36.1303 12.8909 36.1293 13.3375 35.6106C 13.8137 35.0574 25 21.9596 25 13.0378C 24.9999 5.84874 19.3925 0 12.5 0ZM 12.5 19.5975C 9.03219 19.5975 6.211 16.6548 6.211 13.0378C 6.211 9.42076 9.03226 6.47818 12.5 6.47818C 15.9677 6.47818 18.7889 9.42083 18.7889 13.0379C 18.7889 16.6549 15.9677 19.5975 12.5 19.5975Z"/>
</defs>
</svg>
