<svg width="22" height="22" viewBox="0 0 22 22" version="1.1" xmlns="http://www.w3.org/2000/svg" xmlns:xlink="http://www.w3.org/1999/xlink">
<title>Instagram</title>
<desc>Created using Figma</desc>
<g id="Canvas" transform="translate(-2015 -14)">
<g id="Instagram">
<g id="Oval">
<use xlink:href="#path0_stroke" transform="translate(2021.73 20.7316)"/>
</g>
<g id="Oval">
<use xlink:href="#path1_stroke" transform="translate(2030.87 19.1901)"/>
</g>
<g id="Rectangle-path">
<use xlink:href="#path2_stroke" transform="translate(2016.76 15.76)"/>
</g>
</g>
</g>
<defs>
<path id="path0_stroke" d="M 4.26843 9.32564C 7.06145 9.32564 9.32564 7.06145 9.32564 4.26843L 7.74808 4.26843C 7.74808 6.19019 6.19019 7.74808 4.26843 7.74808L 4.26843 9.32564ZM 9.32564 4.26843C 9.32564 1.47541 7.06145 -0.788781 4.26843 -0.788781L 4.26843 0.788781C 6.19019 0.788781 7.74808 2.34667 7.74808 4.26843L 9.32564 4.26843ZM 4.26843 -0.788781C 1.47541 -0.788781 -0.788781 1.47541 -0.788781 4.26843L 0.788781 4.26843C 0.788781 2.34667 2.34667 0.788781 4.26843 0.788781L 4.26843 -0.788781ZM -0.788781 4.26843C -0.788781 7.06145 1.47541 9.32564 4.26843 9.32564L 4.26843 7.74808C 2.34667 7.74808 0.788781 6.19019 0.788781 4.26843L -0.788781 4.26843Z"/>
<path id="path1_stroke" d="M 0.655815 1.98773C 1.39141 1.98773 1.98773 1.39141 1.98773 0.655815L 0.635532 0.655815C 0.635532 0.644613 0.644613 0.635532 0.655815 0.635532L 0.655815 1.98773ZM 1.98773 0.655815C 1.98773 -0.0797801 1.39141 -0.676098 0.655815 -0.676098L 0.655815 0.676098C 0.644613 0.676098 0.635532 0.667017 0.635532 0.655815L 1.98773 0.655815ZM 0.655815 -0.676098C -0.0797801 -0.676098 -0.676098 -0.0797801 -0.676098 0.655815L 0.676098 0.655815C 0.676098 0.667017 0.667017 0.676098 0.655815 0.676098L 0.655815 -0.676098ZM -0.676098 0.655815C -0.676098 1.39141 -0.0797801 1.98773 0.655815 1.98773L 0.655815 0.635532C 0.667017 0.635532 0.676098 0.644613 0.676098 0.655815L -0.676098 0.655815Z"/>
<path id="path2_stroke" d="M 4.28195 0.788781L 14.198 0.788781L 14.198 -0.788781L 4.28195 -0.788781L 4.28195 0.788781ZM 17.6912 4.28195L 17.6912 14.198L 19.2688 14.198L 19.2688 4.28195L 17.6912 4.28195ZM 14.198 17.6912L 4.28195 17.6912L 4.28195 19.2688L 14.198 19.2688L 14.198 17.6912ZM 0.788781 14.198L 0.788781 4.28195L -0.788781 4.28195L -0.788781 14.198L 0.788781 14.198ZM 4.28195 -0.788781C 1.48146 -0.788781 -0.788781 1.48146 -0.788781 4.28195L 0.788781 4.28195C 0.788781 2.35273 2.35273 0.788781 4.28195 0.788781L 4.28195 -0.788781ZM 14.198 0.788781C 16.1273 0.788781 17.6912 2.35273 17.6912 4.28195L 19.2688 4.28195C 19.2688 1.48146 16.9985 -0.788781 14.198 -0.788781L 14.198 0.788781ZM 17.6912 14.198C 17.6912 16.1273 16.1273 17.6912 14.198 17.6912L 14.198 19.2688C 16.9985 19.2688 19.2688 16.9985 19.2688 14.198L 17.6912 14.198ZM 4.28195 17.6912C 2.35273 17.6912 0.788781 16.1273 0.788781 14.198L -0.788781 14.198C -0.788781 16.9985 1.48146 19.2688 4.28195 19.2688L 4.28195 17.6912Z"/>
</defs>
</svg>
