<svg width="22" height="9" viewBox="0 0 22 9" version="1.1" xmlns="http://www.w3.org/2000/svg" xmlns:xlink="http://www.w3.org/1999/xlink">
<title>Soundcloud</title>
<desc>Created using Figma</desc>
<g id="Canvas" transform="translate(-1827 -21)">
<g id="Soundcloud">
<g id="XMLID_527_">
<use xlink:href="#path0_fill" transform="translate(1828.57 25.6061)"/>
</g>
<g id="XMLID_530_">
<use xlink:href="#path1_fill" transform="translate(1827.85 26.1511)"/>
</g>
<g id="XMLID_531_">
<use xlink:href="#path2_fill" transform="translate(1829.36 25.2496)"/>
</g>
<g id="XMLID_532_">
<use xlink:href="#path3_fill" transform="translate(1830.16 25.1735)"/>
</g>
<g id="XMLID_533_">
<use xlink:href="#path4_fill" transform="translate(1830.96 25.3165)"/>
</g>
<g id="XMLID_534_">
<use xlink:href="#path5_fill" transform="translate(1831.76 24.0106)"/>
</g>
<g id="XMLID_535_">
<use xlink:href="#path6_fill" transform="translate(1832.58 23.2293)"/>
</g>
<g id="XMLID_536_">
<use xlink:href="#path7_fill" transform="translate(1833.4 22.869)"/>
</g>
<g id="XMLID_782_">
<use xlink:href="#path8_fill" transform="translate(1834.23 22.7023)"/>
</g>
<g id="XMLID_783_">
<use xlink:href="#path9_fill" transform="translate(1835.06 22.8027)"/>
</g>
<g id="XMLID_784_">
<use xlink:href="#path10_fill" transform="translate(1835.9 22.9489)"/>
</g>
<g id="XMLID_785_">
<use xlink:href="#path11_fill" transform="translate(1836.75 22.1115)"/>
</g>
<g id="XMLID_786_">
<use xlink:href="#path12_fill" transform="translate(1837.56 21.6276)"/>
</g>
<g id="XMLID_787_">
<use xlink:href="#path13_fill" transform="translate(1838.46 21.0441)"/>
</g>
</g>
</g>
<defs>
<path id="path0_fill" d="M 0.283427 3.76033C 0.325189 3.76033 0.360542 3.7264 0.366546 3.6786L 0.593572 1.90053L 0.367221 0.082C 0.360474 0.0342 0.325189 0 0.283427 0C 0.240586 0 0.204087 0.0349333 0.198419 0.082L 0 1.90053L 0.198419 3.678C 0.204087 3.72573 0.240586 3.76033 0.283427 3.76033Z"/>
<path id="path1_fill" d="M 0.250668 2.69013C 0.295533 2.69013 0.331912 2.65461 0.338479 2.60151L 0.530926 1.35671L 0.338479 0.0886246C 0.331838 0.0371773 0.295533 0 0.250668 0C 0.203811 0 0.167505 0.0371773 0.160864 0.0893757L 0 1.35678L 0.160864 2.60121C 0.167505 2.65386 0.203811 2.69013 0.250668 2.69013Z"/>
<path id="path2_fill" d="M 0.391644 0.1C 0.386247 0.0422 0.343405 0 0.290242 0C 0.237483 0 0.194574 0.0422 0.189649 0.1L 0 2.257L 0.189649 4.33527C 0.194574 4.39273 0.237483 4.4344 0.290242 4.4344C 0.343405 4.4344 0.386247 4.39273 0.391644 4.33527L 0.606188 2.257L 0.391644 0.1Z"/>
<path id="path3_fill" d="M 0.297663 4.59427C 0.359867 4.59427 0.410197 4.54367 0.416269 4.47753L 0.619007 2.3338L 0.416269 0.1166C 0.410197 0.05 0.359867 0 0.297663 0C 0.234582 0 0.183509 0.0500667 0.179191 0.116933L 0 2.3338L 0.179191 4.47753C 0.183509 4.54373 0.234582 4.59427 0.297663 4.59427Z"/>
<path id="path4_fill" d="M 0.304612 4.48607C 0.377071 4.48607 0.435227 4.42873 0.441232 4.352L 0.440557 4.35253L 0.631488 2.1908L 0.440557 0.133667C 0.43516 0.0582 0.377071 0 0.304545 0C 0.231006 0 0.173187 0.0582 0.168802 0.134267L 0 2.19087L 0.168802 4.35207C 0.173254 4.42873 0.231073 4.48607 0.304612 4.48607Z"/>
<path id="path5_fill" d="M 0.644644 3.4972L 0.46552 0.1524C 0.460527 0.0676 0.393668 0 0.311629 0C 0.230196 0 0.163539 0.0675333 0.158547 0.1524L 0 3.4972L 0.158547 5.6584C 0.163539 5.7436 0.230264 5.81027 0.311629 5.81027C 0.393735 5.81027 0.460527 5.7436 0.46552 5.6584L 0.46552 5.659L 0.644644 3.4972Z"/>
<path id="path6_fill" d="M 0.319117 6.59507C 0.409455 6.59507 0.484411 6.521 0.488661 6.42647L 0.488661 6.42787L 0.656113 4.279L 0.488661 0.1686C 0.484411 0.0740667 0.409455 0 0.319117 0C 0.226688 0 0.152407 0.0740667 0.147415 0.1686L 0 4.279L 0.148089 6.42713C 0.152407 6.521 0.226688 6.59507 0.319117 6.59507Z"/>
<path id="path7_fill" d="M 0.325189 0C 0.22345 0 0.141343 0.0825333 0.13716 0.1866L 0 4.64L 0.13716 6.7656C 0.14141 6.86913 0.22345 6.95113 0.325189 6.95113C 0.426659 6.95113 0.509373 6.8698 0.512949 6.76527L 0.512949 6.76633L 0.668595 4.64L 0.512949 0.1866C 0.509373 0.0818667 0.426592 0 0.325189 0Z"/>
<path id="path8_fill" d="M 0.333758 7.12207C 0.445482 7.12207 0.534471 7.033 0.538654 6.91833L 0.538654 6.9196L 0.68256 4.80673L 0.538654 0.203733C 0.534403 0.0894667 0.445482 0 0.333758 0C 0.221358 0 0.13102 0.0894667 0.129266 0.203733L 0 4.80673L 0.129266 6.9196C 0.13102 7.033 0.221358 7.12207 0.333758 7.12207Z"/>
<path id="path9_fill" d="M 0.339222 7.01953C 0.459785 7.01953 0.557612 6.922 0.561255 6.79833L 0.561255 6.80027L 0.693692 4.70667L 0.561255 0.220733C 0.557612 0.0971333 0.459785 0 0.339222 0C 0.217782 0 0.119956 0.0970667 0.11638 0.220733L 0 4.70667L 0.117122 6.79927C 0.119956 6.922 0.217782 7.01953 0.339222 7.01953Z"/>
<path id="path10_fill" d="M 0.706848 4.56047L 0.58696 0.238067C 0.584059 0.104733 0.478406 0 0.347386 0C 0.216028 0 0.110308 0.104733 0.107542 0.238933L 0 4.56047L 0.107542 6.64033C 0.110308 6.7726 0.215961 6.8774 0.347386 6.8774C 0.478339 6.8774 0.584059 6.7726 0.58696 6.6384L 0.58696 6.64033L 0.706848 4.56047Z"/>
<path id="path11_fill" d="M 0.353728 7.71873C 0.492979 7.71873 0.608279 7.60427 0.610438 7.46353L 0.610438 7.46467L 0.719262 5.39907L 0.610438 0.255533C 0.608347 0.114267 0.493046 0 0.353728 0C 0.214544 0 0.0995808 0.1148 0.0967472 0.256267L 0 5.397L 0.0967472 7.46473C 0.0995808 7.60427 0.214544 7.71873 0.353728 7.71873Z"/>
<path id="path12_fill" d="M 0.387326 0C 0.236943 0 0.114963 0.123267 0.112467 0.273533L 0 5.8836L 0.113142 7.91867C 0.114963 8.067 0.23701 8.18987 0.387326 8.18987C 0.535415 8.18987 0.659689 8.06693 0.660364 7.9162L 0.660364 7.91867L 0.783153 5.8836L 0.660364 0.273533C 0.659689 0.122733 0.535415 0 0.387326 0Z"/>
<path id="path13_fill" d="M 0.269259 8.788C 0.275331 8.78853 7.12542 8.79173 7.16941 8.79173C 8.54472 8.79173 9.6592 7.67693 9.6592 6.30127C 9.6592 4.92633 8.54465 3.81133 7.16941 3.81133C 6.8281 3.81133 6.50291 3.88027 6.20633 4.00513C 6.00919 1.7604 4.12734 0 1.83165 0C 1.27046 0 0.723243 0.1108 0.239911 0.297933C 0.0518144 0.3706 0.00148427 0.445533 0 0.590733L 0 8.49333C 0.00215893 8.646 0.119956 8.77287 0.269259 8.788Z"/>
</defs>
</svg>
