<svg width="13" height="22" viewBox="0 0 13 22" version="1.1" xmlns="http://www.w3.org/2000/svg" xmlns:xlink="http://www.w3.org/1999/xlink">
<title>tumblr-logo</title>
<desc>Created using Figma</desc>
<g id="Canvas" transform="translate(-1879 -14)">
<g id="tumblr-logo">
<g id="Shape">
<use xlink:href="#path0_fill" transform="translate(1879.28 14.88)"/>
</g>
</g>
</g>
<defs>
<path id="path0_fill" d="M 9.29856 16.9457C 8.71707 16.9457 8.20897 16.8095 7.77504 16.5372C 7.43626 16.335 7.21088 16.0716 7.09803 15.7465C 6.97611 15.4303 6.91553 14.6747 6.91553 13.4797L 6.91553 8.28813L 11.6558 8.28813L 11.6558 5.11253L 6.91549 5.11253L 6.91549 0L 4.06323 0C 3.93295 1.0365 3.69868 1.8973 3.36008 2.58285C 3.02144 3.25922 2.57429 3.83904 2.01866 4.32212C 1.46294 4.79666 0.790085 5.16561 0 5.42905L 0 8.28845L 2.21389 8.28845L 2.21389 15.3909C 2.21389 16.3308 2.3095 17.0381 2.50035 17.5124C 2.68276 17.987 3.02578 18.448 3.52927 18.8961C 4.05014 19.3352 4.64928 19.6646 5.32642 19.884C 6.0297 20.1213 6.83717 20.24 7.74877 20.24C 8.58232 20.24 9.33318 20.1563 10.0017 19.9895C 10.6616 19.8401 11.4344 19.5545 12.32 19.1328L 12.32 15.944C 11.3214 16.6119 10.3144 16.9457 9.29856 16.9457Z"/>
</defs>
</svg>
