<svg width="12" height="22" viewBox="0 0 12 22" version="1.1" xmlns="http://www.w3.org/2000/svg" xmlns:xlink="http://www.w3.org/1999/xlink">
<title>Facebook</title>
<desc>Created using Figma</desc>
<g id="Canvas" transform="translate(-1926 -14)">
<g id="Facebook">
<g id="Shape">
<use xlink:href="#path0_fill" transform="translate(1926.28 14.88)"/>
</g>
</g>
</g>
<defs>
<path id="path0_fill" d="M 11.0092 0.00421127L 8.26527 0C 5.18255 0 3.19036 1.95508 3.19036 4.98109L 3.19036 7.27771L 0.431457 7.27771C 0.193055 7.27771 0 7.46258 0 7.69062L 0 11.0182C 0 11.2462 0.193275 11.4309 0.431457 11.4309L 3.19036 11.4309L 3.19036 19.8273C 3.19036 20.0553 3.38342 20.24 3.62182 20.24L 7.22141 20.24C 7.45981 20.24 7.65286 20.0551 7.65286 19.8273L 7.65286 11.4309L 10.8787 11.4309C 11.1171 11.4309 11.3101 11.2462 11.3101 11.0182L 11.3114 7.69062C 11.3114 7.58113 11.2659 7.47627 11.1851 7.39878C 11.1043 7.32129 10.9942 7.27771 10.8798 7.27771L 7.65286 7.27771L 7.65286 5.33084C 7.65286 4.39509 7.88598 3.92006 9.16032 3.92006L 11.0088 3.91943C 11.2469 3.91943 11.44 3.73456 11.44 3.50673L 11.44 0.416916C 11.44 0.189297 11.2472 0.0046324 11.0092 0.00421127Z"/>
</defs>
</svg>
