<svg width="22" height="18" viewBox="0 0 22 18" version="1.1" xmlns="http://www.w3.org/2000/svg" xmlns:xlink="http://www.w3.org/1999/xlink">
<title>Twitter</title>
<desc>Created using Figma</desc>
<g id="Canvas" transform="translate(-1968 -16)">
<g id="Twitter">
<g id="Shape">
<use xlink:href="#path0_fill" transform="translate(1968.88 16.64)" fill="#010002"/>
</g>
</g>
</g>
<defs>
<path id="path0_fill" d="M 20.24 1.97824C 19.4951 2.31394 18.6957 2.54161 17.8559 2.64325C 18.7134 2.12101 19.3698 1.29268 19.681 0.308691C 18.8766 0.792311 17.9887 1.14348 17.0426 1.33385C 16.2851 0.51194 15.2075 0 14.0123 0C 11.7192 0 9.86004 1.89079 9.86004 4.22148C 9.86004 4.55203 9.89672 4.87488 9.96756 5.18361C 6.51729 5.00737 3.45784 3.32625 1.41019 0.771728C 1.05225 1.39429 0.848626 2.1197 0.848626 2.89405C 0.848626 4.35911 1.5822 5.65179 2.6952 6.40808C 2.01474 6.38494 1.37477 6.19457 0.814496 5.87815L 0.814496 5.93088C 0.814496 7.97602 2.24621 9.68287 4.14461 10.0713C 3.79679 10.1665 3.43002 10.2193 3.05059 10.2193C 2.78248 10.2193 2.52319 10.1923 2.26897 10.1408C 2.79762 11.8194 4.33054 13.04 6.14675 13.0735C 4.72641 14.2054 2.9355 14.8781 0.990306 14.8781C 0.655155 14.8781 0.325031 14.8575 0 14.8202C 1.83771 16.0203 4.01943 16.72 6.3643 16.72C 14.0022 16.72 18.1772 10.2862 18.1772 4.70641L 18.1633 4.15976C 18.979 3.56804 19.6848 2.8246 20.24 1.97824Z"/>
</defs>
</svg>
